# xmcd
#
# Track frame offsets:
#	150
#	21910
#	41652
#	64732
#	84085
#	103725
#	130972
#	150675
#	173500
#	183062
#
# Disc length: 2681 seconds
#
# Revision: 1
# Processed by: cddbd v1.4PL0 Copyright (c) Steve Scherf et al.
# Submitted via: audiograbber 1.81.03
#
DISCID=730a770a
DTITLE=Marius Müller - Det Norske Huset
DYEAR=1997
DGENRE=Rock and Roll
TTITLE0=Fortuna
TTITLE1=Den Lange Veien
TTITLE2=Måneskinn
TTITLE3=THC
TTITLE4=Engel
TTITLE5=Jeg Taper Aldri
TTITLE6=Mantra
TTITLE7=Innertierkyss
TTITLE8=Harde Tider
TTITLE9=Det Klare Vannet
EXTD=
EXTT0=
EXTT1=
EXTT2=
EXTT3=
EXTT4=
EXTT5=
EXTT6=
EXTT7=
EXTT8=
EXTT9=
PLAYORDER=
